<svg width="24" height="228" viewBox="0 0 24 228" fill="none" xmlns="http://www.w3.org/2000/svg">
<path d="M5 21C4.45 21 3.97917 20.8042 3.5875 20.4125C3.19583 20.0208 3 19.55 3 19V5C3 4.45 3.19583 3.97917 3.5875 3.5875C3.97917 3.19583 4.45 3 5 3H19C19.55 3 20.0208 3.19583 20.4125 3.5875C20.8042 3.97917 21 4.45 21 5V19C21 19.55 20.8042 20.0208 20.4125 20.4125C20.0208 20.8042 19.55 21 19 21H5ZM5 19H19V5H5V19Z" fill="#1D1B20"/>
<path d="M5 89C4.45 89 3.97917 88.8042 3.5875 88.4125C3.19583 88.0208 3 87.55 3 87V73C3 72.45 3.19583 71.9792 3.5875 71.5875C3.97917 71.1958 4.45 71 5 71H19C19.55 71 20.0208 71.1958 20.4125 71.5875C20.8042 71.9792 21 72.45 21 73V87C21 87.55 20.8042 88.0208 20.4125 88.4125C20.0208 88.8042 19.55 89 19 89H5ZM5 87H19V73H5V87Z" fill="#1D1B20"/>
<path d="M5 123C4.45 123 3.97917 122.804 3.5875 122.413C3.19583 122.021 3 121.55 3 121V107C3 106.45 3.19583 105.979 3.5875 105.588C3.97917 105.196 4.45 105 5 105H19C19.55 105 20.0208 105.196 20.4125 105.588C20.8042 105.979 21 106.45 21 107V121C21 121.55 20.8042 122.021 20.4125 122.413C20.0208 122.804 19.55 123 19 123H5ZM5 121H19V107H5V121Z" fill="#1D1B20"/>
<path d="M5 157C4.45 157 3.97917 156.804 3.5875 156.413C3.19583 156.021 3 155.55 3 155V141C3 140.45 3.19583 139.979 3.5875 139.588C3.97917 139.196 4.45 139 5 139H19C19.55 139 20.0208 139.196 20.4125 139.588C20.8042 139.979 21 140.45 21 141V155C21 155.55 20.8042 156.021 20.4125 156.413C20.0208 156.804 19.55 157 19 157H5ZM5 155H19V141H5V155Z" fill="#1D1B20"/>
<path d="M5 191C4.45 191 3.97917 190.804 3.5875 190.413C3.19583 190.021 3 189.55 3 189V175C3 174.45 3.19583 173.979 3.5875 173.588C3.97917 173.196 4.45 173 5 173H19C19.55 173 20.0208 173.196 20.4125 173.588C20.8042 173.979 21 174.45 21 175V189C21 189.55 20.8042 190.021 20.4125 190.413C20.0208 190.804 19.55 191 19 191H5ZM5 189H19V175H5V189Z" fill="#1D1B20"/>
<path d="M5 225C4.45 225 3.97917 224.804 3.5875 224.413C3.19583 224.021 3 223.55 3 223V209C3 208.45 3.19583 207.979 3.5875 207.588C3.97917 207.196 4.45 207 5 207H19C19.55 207 20.0208 207.196 20.4125 207.588C20.8042 207.979 21 208.45 21 209V223C21 223.55 20.8042 224.021 20.4125 224.413C20.0208 224.804 19.55 225 19 225H5ZM5 223H19V209H5V223Z" fill="#1D1B20"/>
<path d="M10.6 50.2L17.65 43.15L16.25 41.75L10.6 47.4L7.75 44.55L6.35 45.95L10.6 50.2ZM5 55C4.45 55 3.97917 54.8042 3.5875 54.4125C3.19583 54.0208 3 53.55 3 53V39C3 38.45 3.19583 37.9792 3.5875 37.5875C3.97917 37.1958 4.45 37 5 37H19C19.55 37 20.0208 37.1958 20.4125 37.5875C20.8042 37.9792 21 38.45 21 39V53C21 53.55 20.8042 54.0208 20.4125 54.4125C20.0208 54.8042 19.55 55 19 55H5Z" fill="#1D1B20"/>
</svg>
