<svg width="24" height="179" viewBox="0 0 24 179" fill="none" xmlns="http://www.w3.org/2000/svg">
<path d="M10.6 48.2L17.65 41.15L16.25 39.75L10.6 45.4L7.75 42.55L6.35 43.95L10.6 48.2ZM5 53C4.45 53 3.97917 52.8042 3.5875 52.4125C3.19583 52.0208 3 51.55 3 51V37C3 36.45 3.19583 35.9792 3.5875 35.5875C3.97917 35.1958 4.45 35 5 35H19C19.55 35 20.0208 35.1958 20.4125 35.5875C20.8042 35.9792 21 36.45 21 37V51C21 51.55 20.8042 52.0208 20.4125 52.4125C20.0208 52.8042 19.55 53 19 53H5Z" fill="#1D1B20"/>
<path d="M5 84C4.45 84 3.97917 83.8042 3.5875 83.4125C3.19583 83.0208 3 82.55 3 82V68C3 67.45 3.19583 66.9792 3.5875 66.5875C3.97917 66.1958 4.45 66 5 66H19C19.55 66 20.0208 66.1958 20.4125 66.5875C20.8042 66.9792 21 67.45 21 68V82C21 82.55 20.8042 83.0208 20.4125 83.4125C20.0208 83.8042 19.55 84 19 84H5ZM5 82H19V68H5V82Z" fill="#1D1B20"/>
<path d="M5 118C4.45 118 3.97917 117.804 3.5875 117.413C3.19583 117.021 3 116.55 3 116V102C3 101.45 3.19583 100.979 3.5875 100.588C3.97917 100.196 4.45 100 5 100H19C19.55 100 20.0208 100.196 20.4125 100.588C20.8042 100.979 21 101.45 21 102V116C21 116.55 20.8042 117.021 20.4125 117.413C20.0208 117.804 19.55 118 19 118H5ZM5 116H19V102H5V116Z" fill="#1D1B20"/>
<path d="M5 149C4.45 149 3.97917 148.804 3.5875 148.413C3.19583 148.021 3 147.55 3 147V133C3 132.45 3.19583 131.979 3.5875 131.588C3.97917 131.196 4.45 131 5 131H19C19.55 131 20.0208 131.196 20.4125 131.588C20.8042 131.979 21 132.45 21 133V147C21 147.55 20.8042 148.021 20.4125 148.413C20.0208 148.804 19.55 149 19 149H5ZM5 147H19V133H5V147Z" fill="#1D1B20"/>
<path d="M5 179C4.45 179 3.97917 178.804 3.5875 178.413C3.19583 178.021 3 177.55 3 177V163C3 162.45 3.19583 161.979 3.5875 161.588C3.97917 161.196 4.45 161 5 161H19C19.55 161 20.0208 161.196 20.4125 161.588C20.8042 161.979 21 162.45 21 163V177C21 177.55 20.8042 178.021 20.4125 178.413C20.0208 178.804 19.55 179 19 179H5ZM5 177H19V163H5V177Z" fill="#1D1B20"/>
<path d="M5 21C4.45 21 3.97917 20.8042 3.5875 20.4125C3.19583 20.0208 3 19.55 3 19V5C3 4.45 3.19583 3.97917 3.5875 3.5875C3.97917 3.19583 4.45 3 5 3H19C19.55 3 20.0208 3.19583 20.4125 3.5875C20.8042 3.97917 21 4.45 21 5V19C21 19.55 20.8042 20.0208 20.4125 20.4125C20.0208 20.8042 19.55 21 19 21H5ZM5 19H19V5H5V19Z" fill="#1D1B20"/>
</svg>
