<svg width="24" height="84" viewBox="0 0 24 84" fill="none" xmlns="http://www.w3.org/2000/svg">
<path d="M10.6 48.2L17.65 41.15L16.25 39.75L10.6 45.4L7.75 42.55L6.35 43.95L10.6 48.2ZM5 53C4.45 53 3.97917 52.8042 3.5875 52.4125C3.19583 52.0208 3 51.55 3 51V37C3 36.45 3.19583 35.9792 3.5875 35.5875C3.97917 35.1958 4.45 35 5 35H19C19.55 35 20.0208 35.1958 20.4125 35.5875C20.8042 35.9792 21 36.45 21 37V51C21 51.55 20.8042 52.0208 20.4125 52.4125C20.0208 52.8042 19.55 53 19 53H5Z" fill="#1D1B20"/>
<path d="M5 84C4.45 84 3.97917 83.8042 3.5875 83.4125C3.19583 83.0208 3 82.55 3 82V68C3 67.45 3.19583 66.9792 3.5875 66.5875C3.97917 66.1958 4.45 66 5 66H19C19.55 66 20.0208 66.1958 20.4125 66.5875C20.8042 66.9792 21 67.45 21 68V82C21 82.55 20.8042 83.0208 20.4125 83.4125C20.0208 83.8042 19.55 84 19 84H5ZM5 82H19V68H5V82Z" fill="#1D1B20"/>
<path d="M5 21C4.45 21 3.97917 20.8042 3.5875 20.4125C3.19583 20.0208 3 19.55 3 19V5C3 4.45 3.19583 3.97917 3.5875 3.5875C3.97917 3.19583 4.45 3 5 3H19C19.55 3 20.0208 3.19583 20.4125 3.5875C20.8042 3.97917 21 4.45 21 5V19C21 19.55 20.8042 20.0208 20.4125 20.4125C20.0208 20.8042 19.55 21 19 21H5ZM5 19H19V5H5V19Z" fill="#1D1B20"/>
</svg>
